<?xml version="1.0" encoding="UTF-8" standalone="no"?>
<!DOCTYPE svg PUBLIC "-//W3C//DTD SVG 1.1//EN" "http://www.w3.org/Graphics/SVG/1.1/DTD/svg11.dtd">
<svg width="100%" height="100%" viewBox="0 0 64 64" version="1.1" xmlns="http://www.w3.org/2000/svg" xmlns:xlink="http://www.w3.org/1999/xlink" xml:space="preserve" xmlns:serif="http://www.serif.com/" style="fill-rule:evenodd;clip-rule:evenodd;stroke-linejoin:round;stroke-miterlimit:2;">
    <g transform="matrix(1.11118,0,0,1.11118,-3.49943,-1.1948)">
        <g transform="matrix(0.0158103,0,0,0.0158103,46.7869,29.8807)">
            <g transform="matrix(1,0,0,1,-885.5,-1249.9)">
                <clipPath id="_clip1">
                    <rect x="0" y="0" width="1771" height="2499.8"/>
                </clipPath>
                <g clip-path="url(#_clip1)">
                    <path d="M1387.8,92.5L1240.9,92.5L1393.7,258.4L1393.7,337.3L1078.9,337.3L1078.9,244.9L1231.7,244.9L1078.9,79L1078.9,0L1387.9,0L1387.8,92.5ZM1016.4,92.5L869.3,92.5L1022.3,258.4L1022.3,337.3L707.4,337.3L707.4,244.9L860.2,244.9L707.4,79L707.4,0L1016.4,0L1016.4,92.5ZM648.6,96.3L490.1,96.3L490.1,241.1L648.6,241.1L648.6,337.4L377.3,337.4L377.3,0L648.6,0L648.6,96.3Z" style="fill:rgb(19,19,19);fill-rule:nonzero;"/>
                    <path d="M161.2,2299.1L0,491.4L1771,491.4L1609.6,2298.8L884.4,2499.8L161.2,2299.1Z" style="fill:rgb(21,114,182);fill-rule:nonzero;"/>
                    <path d="M885.5,2346.2L1471.5,2183.7L1609.3,639.2L885.5,639.2L885.5,2346.2Z" style="fill:rgb(51,169,220);fill-rule:nonzero;"/>
                    <path d="M885.5,1294.1L1178.9,1294.1L1199.1,1067.1L885.5,1067.1L885.5,845.5L1441.5,845.5L1436.2,905L1381.7,1516L885.5,1516L885.5,1294.1Z" style="fill:white;fill-rule:nonzero;"/>
                    <path d="M887.2,1869.9L885.7,1869.9L638.8,1803.2L623,1626.4L400.6,1626.4L431.7,1974.5L885.9,2100.9L887.2,2100.9L887.2,1869.9Z" style="fill:rgb(235,235,235);fill-rule:nonzero;"/>
                    <path d="M1160.1,1506.3L1133.4,1803L886.1,1869.7L886.1,2100.7L1340.6,1974.7L1343.9,1937.2L1382.5,1506.2L1160.1,1506.2L1160.1,1506.3Z" style="fill:white;fill-rule:nonzero;"/>
                    <path d="M886.3,845.5L886.3,1067.2L350.9,1067.2L346.3,1017.4L336.2,905L330.9,845.5L886.3,845.5ZM885.5,1294.1L885.5,1515.8L641.4,1515.8L637.1,1466L627,1353.6L621.7,1294.1L885.5,1294.1Z" style="fill:rgb(235,235,235);fill-rule:nonzero;"/>
                </g>
            </g>
        </g>
        <g transform="matrix(0.0158057,0,0,0.0158057,17.1197,29.8619)">
            <g transform="matrix(1,0,0,1,-886.5,-1250)">
                <path d="M1769.85,490.069L1608.9,2293.12L885.42,2493.68L163.938,2293.39L3.155,490.069L1769.85,490.069Z" style="fill:rgb(228,77,38);fill-rule:nonzero;"/>
                <path d="M886.5,2340.37L1471.11,2178.3L1608.64,637.514L886.5,637.514L886.5,2340.37Z" style="fill:rgb(241,101,41);fill-rule:nonzero;"/>
                <path d="M573.619,1079.86L886.5,1079.86L886.5,858.691L331.909,858.691L337.199,918.026L391.562,1527.51L886.5,1527.51L886.5,1306.34L593.834,1306.34L573.619,1079.86ZM623.467,1638.1L401.445,1638.1L432.428,1985.37L885.482,2111.14L886.5,2110.86L886.5,1880.75L885.53,1881L639.215,1814.49L623.467,1638.1Z" style="fill:rgb(235,235,235);fill-rule:nonzero;"/>
                <path d="M167.525,0L279.921,0L279.921,111.046L382.74,111.046L382.74,0L495.143,0L495.143,336.274L382.747,336.274L382.747,223.67L279.928,223.67L279.928,336.274L167.532,336.274L167.532,0L167.525,0ZM642.961,111.517L544.007,111.517L544.007,0L854.353,0L854.353,111.517L755.357,111.517L755.357,336.274L642.961,336.274L642.961,111.517ZM903.605,0L1020.8,0L1092.89,118.158L1164.91,0L1282.16,0L1282.16,336.274L1170.22,336.274L1170.22,169.598L1092.89,289.162L1090.95,289.162L1013.58,169.598L1013.58,336.274L903.605,336.274L903.605,0ZM1338.09,0L1450.52,0L1450.52,225.125L1608.58,225.125L1608.58,336.274L1338.09,336.274L1338.09,0Z" style="fill-rule:nonzero;"/>
                <path d="M885.738,1527.51L1158.09,1527.51L1132.41,1814.36L885.731,1880.93L885.731,2111.03L1339.14,1985.37L1342.47,1948.01L1394.45,1365.73L1399.85,1306.34L885.738,1306.34L885.738,1527.51ZM885.738,1079.32L885.738,1079.86L1419.97,1079.86L1424.4,1030.15L1434.49,918.026L1439.77,858.691L885.738,858.691L885.738,1079.33L885.738,1079.32Z" style="fill:white;fill-rule:nonzero;"/>
            </g>
        </g>
    </g>
    <g transform="matrix(85.321,0,0,73.025,19.0454,59.4138)">
        <path d="M0.239,-0.283C0.237,-0.285 0.235,-0.287 0.234,-0.29C0.233,-0.288 0.232,-0.287 0.232,-0.286C0.231,-0.287 0.231,-0.288 0.231,-0.288C0.232,-0.296 0.232,-0.304 0.23,-0.312L0.231,-0.312C0.234,-0.309 0.231,-0.305 0.235,-0.302L0.238,-0.304C0.237,-0.307 0.238,-0.309 0.238,-0.312C0.239,-0.313 0.237,-0.314 0.236,-0.315C0.232,-0.317 0.232,-0.319 0.231,-0.321C0.231,-0.322 0.23,-0.323 0.23,-0.324L0.228,-0.323L0.228,-0.319L0.227,-0.32C0.224,-0.328 0.221,-0.336 0.216,-0.343L0.216,-0.344C0.217,-0.344 0.219,-0.344 0.221,-0.343L0.221,-0.347C0.22,-0.349 0.219,-0.351 0.217,-0.353C0.213,-0.354 0.213,-0.36 0.206,-0.358C0.206,-0.36 0.206,-0.362 0.207,-0.363L0.202,-0.363C0.202,-0.367 0.2,-0.369 0.197,-0.371C0.195,-0.372 0.191,-0.373 0.188,-0.372C0.188,-0.376 0.186,-0.377 0.184,-0.378C0.177,-0.381 0.171,-0.382 0.164,-0.383C0.158,-0.384 0.151,-0.385 0.145,-0.384C0.143,-0.384 0.142,-0.383 0.14,-0.384C0.139,-0.385 0.138,-0.384 0.137,-0.383C0.135,-0.382 0.133,-0.382 0.132,-0.381C0.13,-0.379 0.129,-0.378 0.127,-0.38C0.124,-0.377 0.12,-0.379 0.117,-0.377C0.114,-0.376 0.112,-0.376 0.11,-0.375L0.098,-0.37C0.098,-0.369 0.098,-0.369 0.097,-0.368C0.094,-0.365 0.092,-0.362 0.087,-0.361C0.086,-0.361 0.084,-0.36 0.083,-0.358C0.082,-0.356 0.079,-0.354 0.076,-0.353C0.073,-0.351 0.071,-0.349 0.07,-0.345C0.068,-0.342 0.065,-0.34 0.063,-0.337C0.06,-0.333 0.058,-0.328 0.053,-0.326L0.052,-0.325C0.053,-0.321 0.051,-0.32 0.05,-0.318L0.045,-0.31C0.044,-0.308 0.044,-0.305 0.043,-0.303C0.038,-0.296 0.036,-0.288 0.035,-0.28L0.035,-0.273C0.034,-0.267 0.034,-0.26 0.036,-0.254C0.036,-0.253 0.036,-0.252 0.037,-0.251C0.044,-0.25 0.049,-0.25 0.053,-0.252C0.058,-0.254 0.061,-0.256 0.062,-0.258L0.067,-0.266L0.076,-0.288L0.077,-0.29L0.083,-0.298C0.09,-0.309 0.097,-0.319 0.106,-0.326L0.117,-0.334C0.12,-0.336 0.122,-0.338 0.125,-0.339C0.13,-0.341 0.134,-0.342 0.138,-0.343C0.147,-0.345 0.156,-0.345 0.164,-0.342L0.167,-0.342C0.169,-0.342 0.17,-0.341 0.171,-0.34C0.173,-0.338 0.174,-0.335 0.179,-0.337L0.179,-0.336C0.178,-0.333 0.179,-0.333 0.18,-0.332C0.185,-0.327 0.188,-0.321 0.192,-0.313C0.193,-0.311 0.193,-0.307 0.194,-0.305C0.194,-0.303 0.194,-0.301 0.195,-0.299C0.195,-0.298 0.195,-0.296 0.194,-0.295C0.192,-0.295 0.193,-0.294 0.193,-0.293C0.192,-0.287 0.192,-0.281 0.19,-0.274C0.189,-0.272 0.187,-0.271 0.186,-0.269C0.186,-0.267 0.185,-0.266 0.185,-0.264C0.186,-0.26 0.182,-0.258 0.184,-0.254L0.183,-0.254C0.179,-0.253 0.179,-0.25 0.179,-0.247C0.178,-0.245 0.178,-0.244 0.177,-0.243C0.176,-0.242 0.175,-0.242 0.175,-0.241L0.169,-0.229C0.169,-0.228 0.168,-0.228 0.169,-0.227L0.158,-0.21C0.154,-0.205 0.153,-0.199 0.148,-0.195C0.145,-0.192 0.143,-0.189 0.141,-0.186C0.138,-0.183 0.137,-0.179 0.134,-0.177C0.13,-0.174 0.13,-0.169 0.128,-0.165C0.128,-0.164 0.127,-0.163 0.127,-0.162C0.125,-0.16 0.122,-0.159 0.121,-0.156C0.12,-0.154 0.119,-0.152 0.117,-0.15C0.116,-0.15 0.114,-0.149 0.115,-0.148C0.115,-0.144 0.112,-0.143 0.112,-0.14L0.101,-0.126C0.097,-0.122 0.096,-0.115 0.091,-0.113L0.091,-0.112C0.091,-0.109 0.088,-0.108 0.087,-0.106C0.085,-0.104 0.083,-0.102 0.081,-0.098L0.072,-0.089C0.069,-0.086 0.068,-0.082 0.064,-0.078C0.057,-0.073 0.053,-0.067 0.049,-0.062C0.046,-0.056 0.043,-0.051 0.038,-0.045C0.037,-0.04 0.029,-0.034 0.026,-0.029L0.023,-0.017L0.02,-0.008L0.021,-0.007C0.024,-0.007 0.025,-0.006 0.022,-0.002C0.02,-0.001 0.021,0 0.023,0C0.025,-0.001 0.025,0 0.025,0.001C0.025,0.003 0.024,0.005 0.026,0.006C0.027,0.005 0.028,0.004 0.027,0.004C0.026,0.005 0.026,0.004 0.027,0.004C0.027,0.003 0.03,0.003 0.032,0.003C0.033,0.003 0.033,0.003 0.034,0.005C0.034,0.006 0.035,0.008 0.038,0.007C0.039,0.007 0.039,0.008 0.039,0.009C0.038,0.01 0.038,0.011 0.038,0.011C0.037,0.012 0.039,0.012 0.04,0.012C0.042,0.013 0.044,0.013 0.047,0.013C0.052,0.012 0.057,0.012 0.059,0.015L0.06,0.015C0.067,0.011 0.075,0.008 0.082,0.005L0.092,0L0.097,-0.002C0.099,-0.003 0.101,-0.004 0.102,-0.003C0.107,-0.004 0.113,-0.003 0.118,-0.003L0.127,-0.003L0.132,-0.002L0.145,0.002L0.168,0.005L0.174,0.005C0.179,0.005 0.184,0.006 0.188,0.007C0.192,0.007 0.195,0.007 0.199,0.006C0.205,0.005 0.21,0.001 0.217,-0.004C0.219,-0.005 0.22,-0.006 0.222,-0.008C0.225,-0.012 0.227,-0.015 0.228,-0.024C0.227,-0.025 0.225,-0.026 0.223,-0.028C0.22,-0.03 0.217,-0.032 0.215,-0.036C0.209,-0.047 0.2,-0.051 0.191,-0.054C0.178,-0.057 0.165,-0.059 0.152,-0.061C0.15,-0.061 0.148,-0.061 0.146,-0.062L0.142,-0.063L0.14,-0.063C0.138,-0.061 0.136,-0.062 0.134,-0.064L0.134,-0.065C0.133,-0.064 0.133,-0.065 0.134,-0.065C0.135,-0.066 0.135,-0.066 0.134,-0.066C0.134,-0.066 0.134,-0.065 0.133,-0.065L0.131,-0.064L0.125,-0.06C0.121,-0.058 0.122,-0.059 0.125,-0.061L0.126,-0.062C0.129,-0.063 0.122,-0.061 0.127,-0.063L0.126,-0.063L0.128,-0.065C0.129,-0.065 0.129,-0.065 0.128,-0.066C0.127,-0.066 0.127,-0.067 0.128,-0.067C0.129,-0.067 0.13,-0.067 0.13,-0.068C0.131,-0.068 0.131,-0.068 0.133,-0.071C0.134,-0.072 0.136,-0.073 0.136,-0.075C0.138,-0.083 0.143,-0.088 0.147,-0.093C0.149,-0.096 0.153,-0.097 0.152,-0.102C0.155,-0.108 0.16,-0.111 0.162,-0.116C0.163,-0.12 0.168,-0.121 0.168,-0.126C0.168,-0.127 0.168,-0.127 0.169,-0.128L0.173,-0.134C0.173,-0.135 0.173,-0.136 0.174,-0.137C0.178,-0.139 0.178,-0.144 0.18,-0.148C0.18,-0.148 0.179,-0.15 0.179,-0.152C0.177,-0.151 0.176,-0.151 0.175,-0.151L0.174,-0.152C0.175,-0.153 0.176,-0.154 0.176,-0.155L0.18,-0.153C0.185,-0.159 0.188,-0.164 0.192,-0.169C0.196,-0.176 0.202,-0.182 0.205,-0.19L0.205,-0.192C0.206,-0.193 0.208,-0.194 0.208,-0.195C0.211,-0.199 0.212,-0.203 0.214,-0.207C0.215,-0.21 0.217,-0.213 0.218,-0.217C0.219,-0.22 0.219,-0.222 0.221,-0.224C0.222,-0.225 0.221,-0.225 0.221,-0.226L0.219,-0.227L0.214,-0.218C0.214,-0.222 0.214,-0.226 0.216,-0.229C0.217,-0.232 0.218,-0.236 0.223,-0.237L0.223,-0.238C0.226,-0.238 0.226,-0.24 0.227,-0.242C0.228,-0.246 0.23,-0.25 0.232,-0.254C0.232,-0.257 0.234,-0.259 0.232,-0.263C0.231,-0.264 0.232,-0.265 0.233,-0.266C0.234,-0.269 0.238,-0.273 0.237,-0.278C0.237,-0.279 0.238,-0.28 0.238,-0.281C0.238,-0.282 0.239,-0.282 0.239,-0.283ZM0.18,-0.369L0.184,-0.367C0.182,-0.366 0.18,-0.367 0.18,-0.369ZM0.224,-0.274C0.224,-0.272 0.223,-0.269 0.222,-0.267C0.222,-0.27 0.219,-0.273 0.223,-0.276C0.224,-0.275 0.225,-0.275 0.224,-0.274ZM0.228,-0.263L0.227,-0.263L0.229,-0.267L0.228,-0.263ZM0.221,-0.261L0.219,-0.252C0.218,-0.251 0.219,-0.249 0.218,-0.248C0.217,-0.245 0.217,-0.242 0.215,-0.239C0.215,-0.238 0.214,-0.238 0.21,-0.239L0.21,-0.242C0.213,-0.249 0.216,-0.256 0.221,-0.262C0.221,-0.262 0.222,-0.261 0.221,-0.261ZM0.223,-0.245L0.222,-0.246L0.224,-0.249L0.223,-0.245ZM0.192,-0.245L0.193,-0.245L0.193,-0.244C0.193,-0.243 0.192,-0.242 0.192,-0.24L0.19,-0.236L0.188,-0.237L0.192,-0.245ZM0.209,-0.232L0.21,-0.234L0.213,-0.233L0.209,-0.232ZM0.179,-0.222C0.18,-0.224 0.181,-0.226 0.183,-0.227L0.185,-0.233L0.187,-0.232L0.179,-0.215C0.178,-0.219 0.178,-0.22 0.179,-0.222ZM0.206,-0.223C0.203,-0.227 0.204,-0.228 0.207,-0.229C0.21,-0.225 0.21,-0.225 0.206,-0.223ZM0.203,-0.213C0.199,-0.219 0.2,-0.219 0.203,-0.221C0.206,-0.22 0.206,-0.219 0.206,-0.218L0.203,-0.213ZM0.195,-0.201C0.193,-0.202 0.193,-0.203 0.193,-0.203L0.196,-0.205C0.198,-0.201 0.198,-0.201 0.195,-0.201ZM0.188,-0.184L0.183,-0.176C0.183,-0.175 0.182,-0.175 0.181,-0.174C0.178,-0.177 0.178,-0.178 0.178,-0.179L0.182,-0.18C0.184,-0.181 0.185,-0.182 0.184,-0.185C0.184,-0.187 0.185,-0.188 0.186,-0.189C0.188,-0.191 0.191,-0.192 0.191,-0.195C0.191,-0.196 0.193,-0.196 0.194,-0.197C0.193,-0.192 0.191,-0.187 0.188,-0.184ZM0.161,-0.187L0.16,-0.187L0.159,-0.188C0.16,-0.188 0.16,-0.189 0.161,-0.19C0.162,-0.189 0.163,-0.189 0.162,-0.188C0.162,-0.188 0.162,-0.187 0.161,-0.187ZM0.15,-0.172L0.153,-0.178L0.154,-0.178L0.15,-0.172ZM0.167,-0.149C0.166,-0.148 0.165,-0.148 0.164,-0.148L0.162,-0.149C0.164,-0.151 0.165,-0.153 0.167,-0.156C0.168,-0.153 0.168,-0.15 0.167,-0.149ZM0.14,-0.108L0.139,-0.109C0.14,-0.111 0.142,-0.112 0.142,-0.114C0.143,-0.114 0.144,-0.113 0.144,-0.113C0.143,-0.111 0.142,-0.109 0.14,-0.108ZM0.143,-0.097L0.143,-0.098L0.147,-0.104L0.148,-0.103L0.143,-0.097ZM0.123,-0.083C0.121,-0.085 0.121,-0.085 0.125,-0.084C0.124,-0.083 0.123,-0.083 0.123,-0.083ZM0.118,-0.055C0.117,-0.054 0.116,-0.054 0.119,-0.056L0.118,-0.055ZM0.089,-0.043C0.089,-0.044 0.091,-0.044 0.091,-0.045L0.092,-0.045L0.089,-0.043Z" style="fill:rgb(39,71,149);fill-rule:nonzero;"/>
    </g>
</svg>
